<svg width="100" height="100" viewBox="0 0 100 100" fill="none" xmlns="http://www.w3.org/2000/svg">
<path d="M46.1796 21.2666C47.6379 17.9333 52.3671 17.9333 53.8212 21.2666L61.1212 38.0249C61.4239 38.7182 61.9095 39.316 62.5261 39.7543C63.1427 40.1925 63.867 40.4546 64.6212 40.5124L83.2171 41.9374C86.9671 42.2249 88.4462 46.9374 85.5337 49.3166L71.6587 60.6624C71.0476 61.1625 70.5911 61.8259 70.3425 62.5754C70.0939 63.3249 70.0634 64.1296 70.2546 64.8958L74.5463 82.0583C75.4379 85.6333 71.5879 88.5249 68.4046 86.6666L52.1004 77.1624C51.4631 76.7905 50.7384 76.5945 50.0004 76.5945C49.2625 76.5945 48.5378 76.7905 47.9004 77.1624L31.5962 86.6666C28.4129 88.5249 24.5629 85.6333 25.4546 82.0583L29.7462 64.8958C29.9356 64.1294 29.9034 63.3251 29.6533 62.5763C29.4032 61.8276 28.9456 61.1653 28.3337 60.6666L14.4587 49.3208C11.5504 46.9416 13.0337 42.2291 16.7796 41.9416L35.3712 40.5166C36.1255 40.4587 36.8498 40.1966 37.4663 39.7584C38.0829 39.3202 38.5686 38.7224 38.8712 38.0291L46.1796 21.2666Z" stroke="white" stroke-width="6"/>
</svg>
