<svg width="500" height="501" viewBox="0 0 500 501" fill="none" xmlns="http://www.w3.org/2000/svg">
<path d="M375.518 382.573C364.243 388.348 266.298 408.12 191.886 387.875C136.296 372.708 62.1512 329.398 37.5015 314.451C32.9927 311.717 31.9865 305.687 35.2499 301.536L126.694 185.249C130.572 180.317 138.225 180.79 141.564 186.104C156.373 209.673 193.86 265.558 238.513 303.581C298.411 354.617 346.807 368.943 375.852 372.26C379.442 372.67 386.794 376.799 375.518 382.573Z" fill="#00D6BC"/>
<path d="M349.119 342.068C339.847 340.022 273.723 304.648 240.23 257.344C216.118 223.238 194.436 165.717 186.481 143.33C184.711 138.351 187.745 133.042 192.892 131.917L295.474 109.498C301.59 108.161 307.212 113.414 306.472 119.652C303.817 142.036 299.824 189.553 307.257 230.808C317.726 289.009 338.959 320.445 354.209 336.253C356.094 338.207 358.392 344.113 349.119 342.068Z" fill="#00D6BC"/>
<path d="M359.592 315.155C355.35 310.143 333.757 262.985 335.055 222.957C335.955 195.772 346.7 158.069 352.079 140.733C353.645 135.685 359.269 133.272 364.044 135.503L423.294 163.195C428.968 165.847 430.274 173.465 425.977 178.033C414.53 190.202 394.967 212.771 382.922 236.485C364.439 272.845 363.014 299.017 364.809 314.094C365.031 315.958 363.834 320.167 359.592 315.155Z" fill="#00D6BC"/>
<path d="M384.152 300.352C383.974 296.548 390.702 267.259 405.411 249.368C414.905 237.837 431.811 225.11 440.839 218.685C444.061 216.392 448.498 217.547 450.314 221.068L465.915 251.316C468.073 255.5 465.356 260.634 460.727 261.422C450.936 263.088 435.455 266.456 422.587 272.568C401.293 282.675 391.411 294.168 386.917 301.719C386.362 302.652 384.329 304.157 384.152 300.352Z" fill="#00D6BC"/>
</svg>
